<svg xmlns="http://www.w3.org/2000/svg" width="900" height="430" viewBox="0 0 900 430">
<rect width="100%" height="100%" fill="#fbf7f0"/>
<text x="450.0" y="28.0" text-anchor="middle" font-family="Arial, Helvetica, sans-serif" font-size="16" font-weight="700" fill="#1f2933">Failure Modes on shifted_test</text>
<text x="450.0" y="46.0" text-anchor="middle" font-family="Arial, Helvetica, sans-serif" font-size="11" font-weight="400" fill="#1f2933">Counts over 45 task-attempts per setting</text>
<line x1="82.0" y1="332.0" x2="866.0" y2="332.0" stroke="#d8ddd7" stroke-width="0.8"/>
<text x="70.0" y="336.0" text-anchor="end" font-family="Arial, Helvetica, sans-serif" font-size="10" font-weight="400" fill="#1f2933">0</text>
<line x1="82.0" y1="254.8" x2="866.0" y2="254.8" stroke="#d8ddd7" stroke-width="0.8"/>
<text x="70.0" y="258.8" text-anchor="end" font-family="Arial, Helvetica, sans-serif" font-size="10" font-weight="400" fill="#1f2933">5</text>
<line x1="82.0" y1="177.6" x2="866.0" y2="177.6" stroke="#d8ddd7" stroke-width="0.8"/>
<text x="70.0" y="181.6" text-anchor="end" font-family="Arial, Helvetica, sans-serif" font-size="10" font-weight="400" fill="#1f2933">10</text>
<line x1="82.0" y1="100.3" x2="866.0" y2="100.3" stroke="#d8ddd7" stroke-width="0.8"/>
<text x="70.0" y="104.3" text-anchor="end" font-family="Arial, Helvetica, sans-serif" font-size="10" font-weight="400" fill="#1f2933">15</text>
<line x1="82.0" y1="54.0" x2="82.0" y2="332.0" stroke="#111827" stroke-width="1.1"/>
<line x1="82.0" y1="332.0" x2="866.0" y2="332.0" stroke="#111827" stroke-width="1.1"/>
<text x="22.0" y="193.0" text-anchor="middle" font-family="Arial, Helvetica, sans-serif" font-size="12" font-weight="400" fill="#1f2933" transform="rotate(-90 22.0 193.0)">Failure count</text>
<rect x="125.3" y="131.2" width="44.0" height="200.8" fill="#4a86a8"/>
<rect x="125.3" y="115.8" width="44.0" height="15.4" fill="#d9a441"/>
<text x="147.3" y="108.8" text-anchor="middle" font-family="Arial, Helvetica, sans-serif" font-size="10" font-weight="400" fill="#1f2933">14</text>
<text x="147.3" y="355.0" text-anchor="middle" font-family="Arial, Helvetica, sans-serif" font-size="10" font-weight="400" fill="#1f2933">Free</text>
<rect x="256.0" y="100.3" width="44.0" height="231.7" fill="#4a86a8"/>
<rect x="256.0" y="84.9" width="44.0" height="15.4" fill="#d9a441"/>
<rect x="256.0" y="69.4" width="44.0" height="15.4" fill="#b35c50"/>
<text x="278.0" y="62.4" text-anchor="middle" font-family="Arial, Helvetica, sans-serif" font-size="10" font-weight="400" fill="#1f2933">17</text>
<text x="278.0" y="355.0" text-anchor="middle" font-family="Arial, Helvetica, sans-serif" font-size="10" font-weight="400" fill="#1f2933">Manual</text>
<rect x="386.7" y="177.6" width="44.0" height="154.4" fill="#4a86a8"/>
<rect x="386.7" y="162.1" width="44.0" height="15.4" fill="#d9a441"/>
<text x="408.7" y="155.1" text-anchor="middle" font-family="Arial, Helvetica, sans-serif" font-size="10" font-weight="400" fill="#1f2933">11</text>
<text x="408.7" y="355.0" text-anchor="middle" font-family="Arial, Helvetica, sans-serif" font-size="10" font-weight="400" fill="#1f2933">Random</text>
<rect x="517.3" y="270.2" width="44.0" height="61.8" fill="#4a86a8"/>
<rect x="517.3" y="239.3" width="44.0" height="30.9" fill="#d9a441"/>
<rect x="517.3" y="208.4" width="44.0" height="30.9" fill="#b35c50"/>
<text x="539.3" y="201.4" text-anchor="middle" font-family="Arial, Helvetica, sans-serif" font-size="10" font-weight="400" fill="#1f2933">8</text>
<text x="539.3" y="355.0" text-anchor="middle" font-family="Arial, Helvetica, sans-serif" font-size="10" font-weight="400" fill="#1f2933">Prompt</text>
<rect x="648.0" y="208.4" width="44.0" height="123.6" fill="#4a86a8"/>
<rect x="648.0" y="177.6" width="44.0" height="30.9" fill="#b35c50"/>
<text x="670.0" y="170.6" text-anchor="middle" font-family="Arial, Helvetica, sans-serif" font-size="10" font-weight="400" fill="#1f2933">10</text>
<text x="670.0" y="355.0" text-anchor="middle" font-family="Arial, Helvetica, sans-serif" font-size="10" font-weight="400" fill="#1f2933">Routing</text>
<rect x="778.7" y="115.8" width="44.0" height="216.2" fill="#4a86a8"/>
<rect x="778.7" y="100.3" width="44.0" height="15.4" fill="#d9a441"/>
<rect x="778.7" y="84.9" width="44.0" height="15.4" fill="#b35c50"/>
<text x="800.7" y="77.9" text-anchor="middle" font-family="Arial, Helvetica, sans-serif" font-size="10" font-weight="400" fill="#1f2933">16</text>
<text x="800.7" y="355.0" text-anchor="middle" font-family="Arial, Helvetica, sans-serif" font-size="10" font-weight="400" fill="#1f2933">Full</text>
<rect x="660.0" y="66.0" width="12.0" height="12.0" fill="#4a86a8"/>
<text x="678.0" y="76.0" text-anchor="start" font-family="Arial, Helvetica, sans-serif" font-size="11" font-weight="400" fill="#1f2933">empty/missing patch</text>
<rect x="660.0" y="86.0" width="12.0" height="12.0" fill="#d9a441"/>
<text x="678.0" y="96.0" text-anchor="start" font-family="Arial, Helvetica, sans-serif" font-size="11" font-weight="400" fill="#1f2933">syntax error</text>
<rect x="660.0" y="106.0" width="12.0" height="12.0" fill="#b35c50"/>
<text x="678.0" y="116.0" text-anchor="start" font-family="Arial, Helvetica, sans-serif" font-size="11" font-weight="400" fill="#1f2933">wrong output</text>
</svg>
