<svg xmlns="http://www.w3.org/2000/svg" width="860" height="560" viewBox="0 0 860 560">
<rect width="100%" height="100%" fill="#fbf7f0"/>
<text x="430.0" y="28.0" text-anchor="middle" font-family="Arial, Helvetica, sans-serif" font-size="16" font-weight="700" fill="#1f2933">APPS Code Repair Success Rate</text>
<text x="430.0" y="50.0" text-anchor="middle" font-family="Arial, Helvetica, sans-serif" font-size="11" font-weight="400" fill="#1f2933">Mean success over three seeds; larger radius indicates higher success.</text>
<rect x="78" y="72" width="704" height="422" rx="18" ry="18" fill="#fffdf8" stroke="#eadfce" stroke-width="1.1"/>
<polygon points="430.0,186.4 521.5,239.2 521.5,344.8 430.0,397.6 338.5,344.8 338.5,239.2" fill="none" stroke="#d8ddd7" stroke-width="1.0" opacity="1.00"/>
<text x="436.0" y="190.4" text-anchor="start" font-family="Arial, Helvetica, sans-serif" font-size="9" font-weight="700" fill="#1f2933">0.6</text>
<polygon points="430.0,151.2 551.9,221.6 551.9,362.4 430.0,432.8 308.1,362.4 308.1,221.6" fill="none" stroke="#d8ddd7" stroke-width="1.0" opacity="1.00"/>
<text x="436.0" y="155.2" text-anchor="start" font-family="Arial, Helvetica, sans-serif" font-size="9" font-weight="700" fill="#1f2933">0.8</text>
<polygon points="430.0,116.0 582.4,204.0 582.4,380.0 430.0,468.0 277.6,380.0 277.6,204.0" fill="none" stroke="#d8ddd7" stroke-width="1.0" opacity="1.00"/>
<text x="436.0" y="120.0" text-anchor="start" font-family="Arial, Helvetica, sans-serif" font-size="9" font-weight="700" fill="#1f2933">1.0</text>
<line x1="430.0" y1="292.0" x2="430.0" y2="116.0" stroke="#e4d8c8" stroke-width="0.8"/>
<text x="430.0" y="107.2" text-anchor="middle" font-family="Arial, Helvetica, sans-serif" font-size="11" font-weight="700" fill="#1f2933">Free</text>
<line x1="430.0" y1="292.0" x2="582.4" y2="204.0" stroke="#e4d8c8" stroke-width="0.8"/>
<text x="590.0" y="203.6" text-anchor="start" font-family="Arial, Helvetica, sans-serif" font-size="11" font-weight="700" fill="#1f2933">Manual</text>
<line x1="430.0" y1="292.0" x2="582.4" y2="380.0" stroke="#e4d8c8" stroke-width="0.8"/>
<text x="590.0" y="388.4" text-anchor="start" font-family="Arial, Helvetica, sans-serif" font-size="11" font-weight="700" fill="#1f2933">Random</text>
<line x1="430.0" y1="292.0" x2="430.0" y2="468.0" stroke="#e4d8c8" stroke-width="0.8"/>
<text x="430.0" y="476.8" text-anchor="middle" font-family="Arial, Helvetica, sans-serif" font-size="11" font-weight="700" fill="#1f2933">Prompt</text>
<line x1="430.0" y1="292.0" x2="277.6" y2="380.0" stroke="#e4d8c8" stroke-width="0.8"/>
<text x="270.0" y="388.4" text-anchor="end" font-family="Arial, Helvetica, sans-serif" font-size="11" font-weight="700" fill="#1f2933">Routing</text>
<line x1="430.0" y1="292.0" x2="277.6" y2="204.0" stroke="#e4d8c8" stroke-width="0.8"/>
<text x="270.0" y="203.6" text-anchor="end" font-family="Arial, Helvetica, sans-serif" font-size="11" font-weight="700" fill="#1f2933">Full</text>
<polygon points="430.0,133.6 572.3,209.9 559.6,366.8 430.0,453.3 303.0,365.3 300.4,217.2" fill="#4a86a8" stroke="#4a86a8" stroke-width="2.3" opacity="0.33"/>
<circle cx="430.0" cy="133.6" r="4.4" fill="#4a86a8" stroke="#fffdf8" stroke-width="1.5"/>
<circle cx="572.3" cy="209.9" r="4.4" fill="#4a86a8" stroke="#fffdf8" stroke-width="1.5"/>
<circle cx="559.6" cy="366.8" r="4.4" fill="#4a86a8" stroke="#fffdf8" stroke-width="1.5"/>
<circle cx="430.0" cy="453.3" r="4.4" fill="#4a86a8" stroke="#fffdf8" stroke-width="1.5"/>
<circle cx="303.0" cy="365.3" r="4.4" fill="#4a86a8" stroke="#fffdf8" stroke-width="1.5"/>
<circle cx="300.4" cy="217.2" r="4.4" fill="#4a86a8" stroke="#fffdf8" stroke-width="1.5"/>
<polygon points="430.0,170.8 524.8,237.2 545.2,358.5 430.0,436.7 311.5,360.4 331.8,235.3" fill="#df6f5d" stroke="#df6f5d" stroke-width="2.3" opacity="0.42"/>
<circle cx="430.0" cy="170.8" r="4.4" fill="#df6f5d" stroke="#fffdf8" stroke-width="1.5"/>
<circle cx="524.8" cy="237.2" r="4.4" fill="#df6f5d" stroke="#fffdf8" stroke-width="1.5"/>
<circle cx="545.2" cy="358.5" r="4.4" fill="#df6f5d" stroke="#fffdf8" stroke-width="1.5"/>
<circle cx="430.0" cy="436.7" r="4.4" fill="#df6f5d" stroke="#fffdf8" stroke-width="1.5"/>
<circle cx="311.5" cy="360.4" r="4.4" fill="#df6f5d" stroke="#fffdf8" stroke-width="1.5"/>
<circle cx="331.8" cy="235.3" r="4.4" fill="#df6f5d" stroke="#fffdf8" stroke-width="1.5"/>
<rect x="108.0" y="445.0" width="20.0" height="11.0" fill="#4a86a8"/>
<text x="136.0" y="455.0" text-anchor="start" font-family="Arial, Helvetica, sans-serif" font-size="11" font-weight="700" fill="#1f2933">test</text>
<rect x="196.0" y="445.0" width="20.0" height="11.0" fill="#df6f5d"/>
<text x="224.0" y="455.0" text-anchor="start" font-family="Arial, Helvetica, sans-serif" font-size="11" font-weight="700" fill="#1f2933">shifted_test</text>
<text x="430.0" y="525.0" text-anchor="middle" font-family="Arial, Helvetica, sans-serif" font-size="11" font-weight="400" fill="#1f2933">Prompt reuse expands the shifted-test polygon, while full reuse contracts it.</text>
</svg>
