<svg xmlns="http://www.w3.org/2000/svg" width="980" height="450" viewBox="0 0 980 450">
<rect width="100%" height="100%" fill="#fbf7f0"/>
<text x="490.0" y="28.0" text-anchor="middle" font-family="Arial, Helvetica, sans-serif" font-size="16" font-weight="700" fill="#1f2933">Average Payoff by Condition</text>
<text x="490.0" y="50.0" text-anchor="middle" font-family="Arial, Helvetica, sans-serif" font-size="11" font-weight="400" fill="#1f2933">Game-specific y-axis scales; compare conditions within each panel.</text>
<text x="24.0" y="221.0" text-anchor="middle" font-family="Arial, Helvetica, sans-serif" font-size="12" font-weight="400" fill="#1f2933" transform="rotate(-90 24.0 221.0)">Average payoff</text>
<rect x="72.0" y="82.0" width="398.0" height="278.0" rx="14.0" ry="14.0" fill="#fffdf8" stroke="#eadfce" stroke-width="1.0"/>
<text x="90.0" y="110.0" text-anchor="start" font-family="Arial, Helvetica, sans-serif" font-size="12" font-weight="700" fill="#1f2933">IPD</text>
<line x1="116.0" y1="316.0" x2="446.0" y2="316.0" stroke="#ddd8cf" stroke-width="0.8"/>
<text x="106.0" y="320.0" text-anchor="end" font-family="Arial, Helvetica, sans-serif" font-size="9" font-weight="400" fill="#5f6f73">0</text>
<line x1="116.0" y1="223.0" x2="446.0" y2="223.0" stroke="#ddd8cf" stroke-width="0.8"/>
<text x="106.0" y="227.0" text-anchor="end" font-family="Arial, Helvetica, sans-serif" font-size="9" font-weight="400" fill="#5f6f73">1.5</text>
<line x1="116.0" y1="130.0" x2="446.0" y2="130.0" stroke="#ddd8cf" stroke-width="0.8"/>
<text x="106.0" y="134.0" text-anchor="end" font-family="Arial, Helvetica, sans-serif" font-size="9" font-weight="400" fill="#5f6f73">3</text>
<line x1="116.0" y1="130.0" x2="116.0" y2="316.0" stroke="#111827" stroke-width="0.8"/>
<line x1="116.0" y1="316.0" x2="446.0" y2="316.0" stroke="#111827" stroke-width="0.8"/>
<rect x="145.0" y="139.0" width="25.0" height="177.0" rx="5.0" ry="5.0" fill="#4a86a8" stroke="none" stroke-width="0"/>
<rect x="174.0" y="130.0" width="25.0" height="186.0" rx="5.0" ry="5.0" fill="#df6f5d" stroke="none" stroke-width="0"/>
<text x="172.0" y="335.0" text-anchor="middle" font-family="Arial, Helvetica, sans-serif" font-size="9" font-weight="400" fill="#1f2933">No persona</text>
<rect x="249.0" y="130.0" width="25.0" height="186.0" rx="5.0" ry="5.0" fill="#4a86a8" stroke="none" stroke-width="0"/>
<rect x="278.0" y="130.0" width="25.0" height="186.0" rx="5.0" ry="5.0" fill="#df6f5d" stroke="none" stroke-width="0"/>
<text x="276.0" y="335.0" text-anchor="middle" font-family="Arial, Helvetica, sans-serif" font-size="9" font-weight="400" fill="#1f2933">Persona</text>
<rect x="353.0" y="131.3" width="25.0" height="184.7" rx="5.0" ry="5.0" fill="#4a86a8" stroke="none" stroke-width="0"/>
<rect x="382.0" y="130.0" width="25.0" height="186.0" rx="5.0" ry="5.0" fill="#df6f5d" stroke="none" stroke-width="0"/>
<text x="380.0" y="335.0" text-anchor="middle" font-family="Arial, Helvetica, sans-serif" font-size="9" font-weight="400" fill="#1f2933">Reuse assets</text>
<rect x="508.0" y="82.0" width="398.0" height="278.0" rx="14.0" ry="14.0" fill="#fffdf8" stroke="#eadfce" stroke-width="1.0"/>
<text x="526.0" y="110.0" text-anchor="start" font-family="Arial, Helvetica, sans-serif" font-size="12" font-weight="700" fill="#1f2933">Public Goods</text>
<line x1="552.0" y1="316.0" x2="882.0" y2="316.0" stroke="#ddd8cf" stroke-width="0.8"/>
<text x="542.0" y="320.0" text-anchor="end" font-family="Arial, Helvetica, sans-serif" font-size="9" font-weight="400" fill="#5f6f73">0</text>
<line x1="552.0" y1="223.0" x2="882.0" y2="223.0" stroke="#ddd8cf" stroke-width="0.8"/>
<text x="542.0" y="227.0" text-anchor="end" font-family="Arial, Helvetica, sans-serif" font-size="9" font-weight="400" fill="#5f6f73">8</text>
<line x1="552.0" y1="130.0" x2="882.0" y2="130.0" stroke="#ddd8cf" stroke-width="0.8"/>
<text x="542.0" y="134.0" text-anchor="end" font-family="Arial, Helvetica, sans-serif" font-size="9" font-weight="400" fill="#5f6f73">16</text>
<line x1="552.0" y1="130.0" x2="552.0" y2="316.0" stroke="#111827" stroke-width="0.8"/>
<line x1="552.0" y1="316.0" x2="882.0" y2="316.0" stroke="#111827" stroke-width="0.8"/>
<rect x="581.0" y="157.1" width="25.0" height="158.9" rx="5.0" ry="5.0" fill="#4a86a8" stroke="none" stroke-width="0"/>
<rect x="610.0" y="197.2" width="25.0" height="118.8" rx="5.0" ry="5.0" fill="#df6f5d" stroke="none" stroke-width="0"/>
<text x="608.0" y="335.0" text-anchor="middle" font-family="Arial, Helvetica, sans-serif" font-size="9" font-weight="400" fill="#1f2933">No persona</text>
<rect x="685.0" y="147.4" width="25.0" height="168.6" rx="5.0" ry="5.0" fill="#4a86a8" stroke="none" stroke-width="0"/>
<rect x="714.0" y="164.1" width="25.0" height="151.9" rx="5.0" ry="5.0" fill="#df6f5d" stroke="none" stroke-width="0"/>
<text x="712.0" y="335.0" text-anchor="middle" font-family="Arial, Helvetica, sans-serif" font-size="9" font-weight="400" fill="#1f2933">Persona</text>
<rect x="789.0" y="131.0" width="25.0" height="185.0" rx="5.0" ry="5.0" fill="#4a86a8" stroke="none" stroke-width="0"/>
<rect x="818.0" y="161.0" width="25.0" height="155.0" rx="5.0" ry="5.0" fill="#df6f5d" stroke="none" stroke-width="0"/>
<text x="816.0" y="335.0" text-anchor="middle" font-family="Arial, Helvetica, sans-serif" font-size="9" font-weight="400" fill="#1f2933">Reuse assets</text>
<rect x="360.0" y="409.0" width="20.0" height="11.0" fill="#4a86a8"/>
<text x="388.0" y="420.0" text-anchor="start" font-family="Arial, Helvetica, sans-serif" font-size="10" font-weight="700" fill="#1f2933">test</text>
<rect x="452.0" y="409.0" width="20.0" height="11.0" fill="#df6f5d"/>
<text x="480.0" y="420.0" text-anchor="start" font-family="Arial, Helvetica, sans-serif" font-size="10" font-weight="700" fill="#1f2933">shifted</text>
</svg>
