<svg xmlns="http://www.w3.org/2000/svg" width="980" height="570" viewBox="0 0 980 570">
<rect width="100%" height="100%" fill="#fbf7f0"/>
<text x="490.0" y="28.0" text-anchor="middle" font-family="Arial, Helvetica, sans-serif" font-size="16" font-weight="700" fill="#1f2933">Domain 2 Cooperation in Repeated Social Dilemmas</text>
<text x="490.0" y="50.0" text-anchor="middle" font-family="Arial, Helvetica, sans-serif" font-size="11" font-weight="400" fill="#1f2933">Each panel is one formal game instance; all invalid-action rates are zero.</text>
<text x="24.0" y="299.0" text-anchor="middle" font-family="Arial, Helvetica, sans-serif" font-size="12" font-weight="400" fill="#1f2933" transform="rotate(-90 24.0 299.0)">Cooperation rate</text>
<rect x="72.0" y="86.0" width="398.0" height="186.0" rx="14.0" ry="14.0" fill="#fffdf8" stroke="#eadfce" stroke-width="1.0"/>
<text x="90.0" y="112.0" text-anchor="start" font-family="Arial, Helvetica, sans-serif" font-size="12" font-weight="700" fill="#1f2933">IPD / test</text>
<line x1="116.0" y1="238.0" x2="446.0" y2="238.0" stroke="#ddd8cf" stroke-width="0.8"/>
<text x="106.0" y="242.0" text-anchor="end" font-family="Arial, Helvetica, sans-serif" font-size="9" font-weight="400" fill="#5f6f73">0.0</text>
<line x1="116.0" y1="184.0" x2="446.0" y2="184.0" stroke="#ddd8cf" stroke-width="0.8"/>
<text x="106.0" y="188.0" text-anchor="end" font-family="Arial, Helvetica, sans-serif" font-size="9" font-weight="400" fill="#5f6f73">0.5</text>
<line x1="116.0" y1="130.0" x2="446.0" y2="130.0" stroke="#ddd8cf" stroke-width="0.8"/>
<text x="106.0" y="134.0" text-anchor="end" font-family="Arial, Helvetica, sans-serif" font-size="9" font-weight="400" fill="#5f6f73">1.0</text>
<line x1="116.0" y1="130.0" x2="116.0" y2="238.0" stroke="#111827" stroke-width="0.8"/>
<line x1="116.0" y1="238.0" x2="446.0" y2="238.0" stroke="#111827" stroke-width="0.8"/>
<rect x="137.0" y="145.8" width="58.0" height="92.2" rx="7.0" ry="7.0" fill="#a8a29e" stroke="none" stroke-width="0"/>
<text x="166.0" y="137.8" text-anchor="middle" font-family="Arial, Helvetica, sans-serif" font-size="10" font-weight="700" fill="#1f2933">0.854</text>
<text x="166.0" y="257.0" text-anchor="middle" font-family="Arial, Helvetica, sans-serif" font-size="9" font-weight="400" fill="#1f2933">No persona</text>
<rect x="241.0" y="130.0" width="58.0" height="108.0" rx="7.0" ry="7.0" fill="#4a9b8f" stroke="none" stroke-width="0"/>
<text x="270.0" y="122.0" text-anchor="middle" font-family="Arial, Helvetica, sans-serif" font-size="10" font-weight="700" fill="#1f2933">1.000</text>
<text x="270.0" y="257.0" text-anchor="middle" font-family="Arial, Helvetica, sans-serif" font-size="9" font-weight="400" fill="#1f2933">Persona</text>
<rect x="345.0" y="132.2" width="58.0" height="105.8" rx="7.0" ry="7.0" fill="#df6f5d" stroke="none" stroke-width="0"/>
<text x="374.0" y="124.2" text-anchor="middle" font-family="Arial, Helvetica, sans-serif" font-size="10" font-weight="700" fill="#1f2933">0.979</text>
<text x="374.0" y="257.0" text-anchor="middle" font-family="Arial, Helvetica, sans-serif" font-size="9" font-weight="400" fill="#1f2933">Reuse assets</text>
<rect x="508.0" y="86.0" width="398.0" height="186.0" rx="14.0" ry="14.0" fill="#fffdf8" stroke="#eadfce" stroke-width="1.0"/>
<text x="526.0" y="112.0" text-anchor="start" font-family="Arial, Helvetica, sans-serif" font-size="12" font-weight="700" fill="#1f2933">Public Goods / test</text>
<line x1="552.0" y1="238.0" x2="882.0" y2="238.0" stroke="#ddd8cf" stroke-width="0.8"/>
<text x="542.0" y="242.0" text-anchor="end" font-family="Arial, Helvetica, sans-serif" font-size="9" font-weight="400" fill="#5f6f73">0.0</text>
<line x1="552.0" y1="184.0" x2="882.0" y2="184.0" stroke="#ddd8cf" stroke-width="0.8"/>
<text x="542.0" y="188.0" text-anchor="end" font-family="Arial, Helvetica, sans-serif" font-size="9" font-weight="400" fill="#5f6f73">0.5</text>
<line x1="552.0" y1="130.0" x2="882.0" y2="130.0" stroke="#ddd8cf" stroke-width="0.8"/>
<text x="542.0" y="134.0" text-anchor="end" font-family="Arial, Helvetica, sans-serif" font-size="9" font-weight="400" fill="#5f6f73">1.0</text>
<line x1="552.0" y1="130.0" x2="552.0" y2="238.0" stroke="#111827" stroke-width="0.8"/>
<line x1="552.0" y1="238.0" x2="882.0" y2="238.0" stroke="#111827" stroke-width="0.8"/>
<rect x="573.0" y="172.0" width="58.0" height="66.0" rx="7.0" ry="7.0" fill="#a8a29e" stroke="none" stroke-width="0"/>
<text x="602.0" y="164.0" text-anchor="middle" font-family="Arial, Helvetica, sans-serif" font-size="10" font-weight="700" fill="#1f2933">0.611</text>
<text x="602.0" y="257.0" text-anchor="middle" font-family="Arial, Helvetica, sans-serif" font-size="9" font-weight="400" fill="#1f2933">No persona</text>
<rect x="677.0" y="157.0" width="58.0" height="81.0" rx="7.0" ry="7.0" fill="#4a9b8f" stroke="none" stroke-width="0"/>
<text x="706.0" y="149.0" text-anchor="middle" font-family="Arial, Helvetica, sans-serif" font-size="10" font-weight="700" fill="#1f2933">0.750</text>
<text x="706.0" y="257.0" text-anchor="middle" font-family="Arial, Helvetica, sans-serif" font-size="9" font-weight="400" fill="#1f2933">Persona</text>
<rect x="781.0" y="131.5" width="58.0" height="106.5" rx="7.0" ry="7.0" fill="#df6f5d" stroke="none" stroke-width="0"/>
<text x="810.0" y="123.5" text-anchor="middle" font-family="Arial, Helvetica, sans-serif" font-size="10" font-weight="700" fill="#1f2933">0.986</text>
<text x="810.0" y="257.0" text-anchor="middle" font-family="Arial, Helvetica, sans-serif" font-size="9" font-weight="400" fill="#1f2933">Reuse assets</text>
<rect x="72.0" y="326.0" width="398.0" height="186.0" rx="14.0" ry="14.0" fill="#fffdf8" stroke="#eadfce" stroke-width="1.0"/>
<text x="90.0" y="352.0" text-anchor="start" font-family="Arial, Helvetica, sans-serif" font-size="12" font-weight="700" fill="#1f2933">IPD / shifted</text>
<line x1="116.0" y1="478.0" x2="446.0" y2="478.0" stroke="#ddd8cf" stroke-width="0.8"/>
<text x="106.0" y="482.0" text-anchor="end" font-family="Arial, Helvetica, sans-serif" font-size="9" font-weight="400" fill="#5f6f73">0.0</text>
<line x1="116.0" y1="424.0" x2="446.0" y2="424.0" stroke="#ddd8cf" stroke-width="0.8"/>
<text x="106.0" y="428.0" text-anchor="end" font-family="Arial, Helvetica, sans-serif" font-size="9" font-weight="400" fill="#5f6f73">0.5</text>
<line x1="116.0" y1="370.0" x2="446.0" y2="370.0" stroke="#ddd8cf" stroke-width="0.8"/>
<text x="106.0" y="374.0" text-anchor="end" font-family="Arial, Helvetica, sans-serif" font-size="9" font-weight="400" fill="#5f6f73">1.0</text>
<line x1="116.0" y1="370.0" x2="116.0" y2="478.0" stroke="#111827" stroke-width="0.8"/>
<line x1="116.0" y1="478.0" x2="446.0" y2="478.0" stroke="#111827" stroke-width="0.8"/>
<rect x="137.0" y="370.0" width="58.0" height="108.0" rx="7.0" ry="7.0" fill="#a8a29e" stroke="none" stroke-width="0"/>
<text x="166.0" y="362.0" text-anchor="middle" font-family="Arial, Helvetica, sans-serif" font-size="10" font-weight="700" fill="#1f2933">1.000</text>
<text x="166.0" y="497.0" text-anchor="middle" font-family="Arial, Helvetica, sans-serif" font-size="9" font-weight="400" fill="#1f2933">No persona</text>
<rect x="241.0" y="370.0" width="58.0" height="108.0" rx="7.0" ry="7.0" fill="#4a9b8f" stroke="none" stroke-width="0"/>
<text x="270.0" y="362.0" text-anchor="middle" font-family="Arial, Helvetica, sans-serif" font-size="10" font-weight="700" fill="#1f2933">1.000</text>
<text x="270.0" y="497.0" text-anchor="middle" font-family="Arial, Helvetica, sans-serif" font-size="9" font-weight="400" fill="#1f2933">Persona</text>
<rect x="345.0" y="370.0" width="58.0" height="108.0" rx="7.0" ry="7.0" fill="#df6f5d" stroke="none" stroke-width="0"/>
<text x="374.0" y="362.0" text-anchor="middle" font-family="Arial, Helvetica, sans-serif" font-size="10" font-weight="700" fill="#1f2933">1.000</text>
<text x="374.0" y="497.0" text-anchor="middle" font-family="Arial, Helvetica, sans-serif" font-size="9" font-weight="400" fill="#1f2933">Reuse assets</text>
<rect x="508.0" y="326.0" width="398.0" height="186.0" rx="14.0" ry="14.0" fill="#fffdf8" stroke="#eadfce" stroke-width="1.0"/>
<text x="526.0" y="352.0" text-anchor="start" font-family="Arial, Helvetica, sans-serif" font-size="12" font-weight="700" fill="#1f2933">Public Goods / shifted</text>
<line x1="552.0" y1="478.0" x2="882.0" y2="478.0" stroke="#ddd8cf" stroke-width="0.8"/>
<text x="542.0" y="482.0" text-anchor="end" font-family="Arial, Helvetica, sans-serif" font-size="9" font-weight="400" fill="#5f6f73">0.0</text>
<line x1="552.0" y1="424.0" x2="882.0" y2="424.0" stroke="#ddd8cf" stroke-width="0.8"/>
<text x="542.0" y="428.0" text-anchor="end" font-family="Arial, Helvetica, sans-serif" font-size="9" font-weight="400" fill="#5f6f73">0.5</text>
<line x1="552.0" y1="370.0" x2="882.0" y2="370.0" stroke="#ddd8cf" stroke-width="0.8"/>
<text x="542.0" y="374.0" text-anchor="end" font-family="Arial, Helvetica, sans-serif" font-size="9" font-weight="400" fill="#5f6f73">1.0</text>
<line x1="552.0" y1="370.0" x2="552.0" y2="478.0" stroke="#111827" stroke-width="0.8"/>
<line x1="552.0" y1="478.0" x2="882.0" y2="478.0" stroke="#111827" stroke-width="0.8"/>
<rect x="573.0" y="472.0" width="58.0" height="6.0" rx="7.0" ry="7.0" fill="#a8a29e" stroke="none" stroke-width="0"/>
<text x="602.0" y="464.0" text-anchor="middle" font-family="Arial, Helvetica, sans-serif" font-size="10" font-weight="700" fill="#1f2933">0.056</text>
<text x="602.0" y="497.0" text-anchor="middle" font-family="Arial, Helvetica, sans-serif" font-size="9" font-weight="400" fill="#1f2933">No persona</text>
<rect x="677.0" y="395.2" width="58.0" height="82.8" rx="7.0" ry="7.0" fill="#4a9b8f" stroke="none" stroke-width="0"/>
<text x="706.0" y="387.2" text-anchor="middle" font-family="Arial, Helvetica, sans-serif" font-size="10" font-weight="700" fill="#1f2933">0.767</text>
<text x="706.0" y="497.0" text-anchor="middle" font-family="Arial, Helvetica, sans-serif" font-size="9" font-weight="400" fill="#1f2933">Persona</text>
<rect x="781.0" y="388.0" width="58.0" height="90.0" rx="7.0" ry="7.0" fill="#df6f5d" stroke="none" stroke-width="0"/>
<text x="810.0" y="380.0" text-anchor="middle" font-family="Arial, Helvetica, sans-serif" font-size="10" font-weight="700" fill="#1f2933">0.833</text>
<text x="810.0" y="497.0" text-anchor="middle" font-family="Arial, Helvetica, sans-serif" font-size="9" font-weight="400" fill="#1f2933">Reuse assets</text>
<text x="490.0" y="548.0" text-anchor="middle" font-family="Arial, Helvetica, sans-serif" font-size="11" font-weight="400" fill="#1f2933">Public Goods shows the clearest monotonic pattern; shifted IPD is saturated.</text>
</svg>
