<svg xmlns="http://www.w3.org/2000/svg" width="1120" height="560" viewBox="0 0 1120 560">
<rect width="100%" height="100%" fill="#fbf7f0"/>
<text x="560.0" y="30.0" text-anchor="middle" font-family="Arial, Helvetica, sans-serif" font-size="17" font-weight="700" fill="#1f2933">ORCA: Extract, Type, and Selectively Reuse Coordination Assets</text>
<text x="560.0" y="52.0" text-anchor="middle" font-family="Arial, Helvetica, sans-serif" font-size="11" font-weight="400" fill="#1f2933">The empirical question is not whether all memory helps, but which asset type transfers under distribution shift.</text>
<rect x="42.0" y="88.0" width="302.0" height="390.0" rx="12.0" ry="12.0" fill="#f8fafc" stroke="#d6dee8" stroke-width="1.0"/>
<text x="60.0" y="118.0" text-anchor="start" font-family="Arial, Helvetica, sans-serif" font-size="13" font-weight="700" fill="#1f2933">1  Training-time emergence</text>
<rect x="408.0" y="88.0" width="304.0" height="390.0" rx="12.0" ry="12.0" fill="#f8fafc" stroke="#d6dee8" stroke-width="1.0"/>
<text x="426.0" y="118.0" text-anchor="start" font-family="Arial, Helvetica, sans-serif" font-size="13" font-weight="700" fill="#1f2933">2  Typed asset store</text>
<rect x="776.0" y="88.0" width="302.0" height="390.0" rx="12.0" ry="12.0" fill="#f8fafc" stroke="#d6dee8" stroke-width="1.0"/>
<text x="794.0" y="118.0" text-anchor="start" font-family="Arial, Helvetica, sans-serif" font-size="13" font-weight="700" fill="#1f2933">3  Test-time selective reuse</text>
<rect x="72.0" y="142.0" width="242.0" height="72.0" rx="8.0" ry="8.0" fill="#ffffff" stroke="#cbd5e1" stroke-width="1.1"/>
<text x="90.0" y="170.0" text-anchor="start" font-family="Arial, Helvetica, sans-serif" font-size="13" font-weight="700" fill="#1f2933">Multi-agent training runs</text>
<text x="90.0" y="194.0" text-anchor="start" font-family="Arial, Helvetica, sans-serif" font-size="10" font-weight="400" fill="#1f2933">localize -&gt; patch -&gt; review</text>
<rect x="72.0" y="250.0" width="242.0" height="78.0" rx="8.0" ry="8.0" fill="#ffffff" stroke="#cbd5e1" stroke-width="1.1"/>
<text x="90.0" y="278.0" text-anchor="start" font-family="Arial, Helvetica, sans-serif" font-size="13" font-weight="700" fill="#1f2933">Trajectory logs</text>
<text x="90.0" y="302.0" text-anchor="start" font-family="Arial, Helvetica, sans-serif" font-size="10" font-weight="400" fill="#1f2933">agent choices, handoffs, outcomes</text>
<rect x="72.0" y="364.0" width="242.0" height="72.0" rx="8.0" ry="8.0" fill="#ffffff" stroke="#cbd5e1" stroke-width="1.1"/>
<text x="90.0" y="392.0" text-anchor="start" font-family="Arial, Helvetica, sans-serif" font-size="13" font-weight="700" fill="#1f2933">Successful patterns</text>
<text x="90.0" y="416.0" text-anchor="start" font-family="Arial, Helvetica, sans-serif" font-size="10" font-weight="400" fill="#1f2933">specialization and procedures</text>
<line x1="193.0" y1="214.0" x2="193.0" y2="250.0" stroke="#334155" stroke-width="1.4"/>
<polygon points="193.0,250.0 189.0,241.4 197.0,241.4" fill="#334155"/>
<line x1="193.0" y1="328.0" x2="193.0" y2="364.0" stroke="#334155" stroke-width="1.4"/>
<polygon points="193.0,364.0 189.0,355.4 197.0,355.4" fill="#334155"/>
<rect x="438.0" y="124.0" width="244.0" height="60.0" rx="8.0" ry="8.0" fill="#ffffff" stroke="#a7bdd4" stroke-width="1.1"/>
<text x="456.0" y="152.0" text-anchor="start" font-family="Arial, Helvetica, sans-serif" font-size="13" font-weight="700" fill="#1f2933">Role assets</text>
<text x="456.0" y="176.0" text-anchor="start" font-family="Arial, Helvetica, sans-serif" font-size="10" font-weight="400" fill="#1f2933">who tends to handle which subtask</text>
<rect x="438.0" y="214.0" width="244.0" height="60.0" rx="8.0" ry="8.0" fill="#eef6fd" stroke="#2f6f9f" stroke-width="1.1"/>
<text x="456.0" y="242.0" text-anchor="start" font-family="Arial, Helvetica, sans-serif" font-size="13" font-weight="700" fill="#1f2933">Procedural prompt assets</text>
<text x="456.0" y="266.0" text-anchor="start" font-family="Arial, Helvetica, sans-serif" font-size="10" font-weight="400" fill="#1f2933">how to localize and hand off patches</text>
<rect x="438.0" y="304.0" width="244.0" height="60.0" rx="8.0" ry="8.0" fill="#ffffff" stroke="#a7bdd4" stroke-width="1.1"/>
<text x="456.0" y="332.0" text-anchor="start" font-family="Arial, Helvetica, sans-serif" font-size="13" font-weight="700" fill="#1f2933">Organization assets</text>
<text x="456.0" y="356.0" text-anchor="start" font-family="Arial, Helvetica, sans-serif" font-size="10" font-weight="400" fill="#1f2933">team-level workflow summaries</text>
<rect x="466.0" y="404.0" width="188.0" height="42.0" rx="8.0" ry="8.0" fill="#fff7ed" stroke="#d99a3d" stroke-width="1.0"/>
<text x="560.0" y="430.0" text-anchor="middle" font-family="Arial, Helvetica, sans-serif" font-size="12" font-weight="700" fill="#1f2933">validated by ablation</text>
<rect x="806.0" y="124.0" width="242.0" height="60.0" rx="8.0" ry="8.0" fill="#eef6fd" stroke="#2f6f9f" stroke-width="1.1"/>
<text x="824.0" y="152.0" text-anchor="start" font-family="Arial, Helvetica, sans-serif" font-size="13" font-weight="700" fill="#1f2933">Prompt-only reuse</text>
<text x="824.0" y="176.0" text-anchor="start" font-family="Arial, Helvetica, sans-serif" font-size="10" font-weight="400" fill="#1f2933">inject procedural guidance</text>
<rect x="806.0" y="214.0" width="242.0" height="60.0" rx="8.0" ry="8.0" fill="#ffffff" stroke="#cbd5e1" stroke-width="1.1"/>
<text x="824.0" y="242.0" text-anchor="start" font-family="Arial, Helvetica, sans-serif" font-size="13" font-weight="700" fill="#1f2933">Routing-only reuse</text>
<text x="824.0" y="266.0" text-anchor="start" font-family="Arial, Helvetica, sans-serif" font-size="10" font-weight="400" fill="#1f2933">assign subtasks from role assets</text>
<rect x="806.0" y="304.0" width="242.0" height="60.0" rx="8.0" ry="8.0" fill="#fffafa" stroke="#b35c44" stroke-width="1.1"/>
<text x="824.0" y="332.0" text-anchor="start" font-family="Arial, Helvetica, sans-serif" font-size="13" font-weight="700" fill="#1f2933">Full reuse</text>
<text x="824.0" y="356.0" text-anchor="start" font-family="Arial, Helvetica, sans-serif" font-size="10" font-weight="400" fill="#1f2933">prompt + routing together</text>
<rect x="806.0" y="404.0" width="242.0" height="42.0" rx="8.0" ry="8.0" fill="#f8fafc" stroke="#94a3b8" stroke-width="1.0"/>
<text x="927.0" y="430.0" text-anchor="middle" font-family="Arial, Helvetica, sans-serif" font-size="12" font-weight="700" fill="#1f2933">choose asset type empirically</text>
<line x1="314.0" y1="401.0" x2="438.0" y2="154.0" stroke="#64748b" stroke-width="1.4"/>
<polygon points="438.0,154.0 437.8,163.5 430.5,159.9" fill="#64748b"/>
<line x1="314.0" y1="401.0" x2="438.0" y2="244.0" stroke="#2f6f9f" stroke-width="1.4"/>
<polygon points="438.0,244.0 435.8,253.3 429.5,248.2" fill="#2f6f9f"/>
<line x1="314.0" y1="401.0" x2="438.0" y2="334.0" stroke="#64748b" stroke-width="1.4"/>
<polygon points="438.0,334.0 432.4,341.6 428.5,334.5" fill="#64748b"/>
<line x1="682.0" y1="154.0" x2="806.0" y2="244.0" stroke="#64748b" stroke-width="1.4"/>
<polygon points="806.0,244.0 796.7,242.2 801.4,235.7" fill="#64748b"/>
<line x1="682.0" y1="244.0" x2="806.0" y2="154.0" stroke="#2f6f9f" stroke-width="1.4"/>
<polygon points="806.0,154.0 801.4,162.3 796.7,155.8" fill="#2f6f9f"/>
<line x1="682.0" y1="334.0" x2="806.0" y2="334.0" stroke="#b35c44" stroke-width="1.4"/>
<polygon points="806.0,334.0 797.4,338.0 797.4,330.0" fill="#b35c44"/>
<line x1="560.0" y1="364.0" x2="560.0" y2="404.0" stroke="#d99a3d" stroke-width="1.4" stroke-dasharray="4 3"/>
<polygon points="560.0,404.0 556.0,395.4 564.0,395.4" fill="#d99a3d"/>
<line x1="927.0" y1="364.0" x2="927.0" y2="404.0" stroke="#64748b" stroke-width="1.4" stroke-dasharray="4 3"/>
<polygon points="927.0,404.0 923.0,395.4 931.0,395.4" fill="#64748b"/>
<rect x="118.0" y="500.0" width="884.0" height="38.0" rx="10.0" ry="10.0" fill="#eef2f7" stroke="#cbd5e1" stroke-width="1.0"/>
<text x="560.0" y="525.0" text-anchor="middle" font-family="Arial, Helvetica, sans-serif" font-size="12" font-weight="700" fill="#1f2933">Domain 1 evidence: prompt-level procedural assets transfer most clearly; full reuse can over-constrain the workflow.</text>
</svg>
